<svg 
 xmlns="http://www.w3.org/2000/svg"
 xmlns:xlink="http://www.w3.org/1999/xlink"
 width="270px" height="58px">
<text font-family="Open Sans" fill="rgb(255, 255, 255)" transform="matrix( 2.39320500277884, 0, 0, 2.40647290409477,84.5433734442092, 46.8453103286634)" font-weight="bold" font-size="17.873px">BlueRex</text>
<path fill-rule="evenodd"  fill="rgb(255, 255, 255)"
 d="M64.765,26.043 L56.940,50.788 C55.883,54.130 51.841,55.814 47.912,54.549 C43.983,53.285 41.654,49.550 42.711,46.208 L50.536,21.462 C51.593,18.120 55.635,16.436 59.564,17.701 C63.494,18.966 65.822,22.701 64.765,26.043 ZM38.253,51.561 C36.627,56.703 30.407,59.294 24.361,57.348 C18.315,55.402 14.732,49.655 16.358,44.512 L28.399,6.436 C30.025,1.294 36.244,-1.297 42.290,0.649 C48.336,2.596 51.919,8.342 50.293,13.485 L38.253,51.561 ZM15.466,38.708 C14.409,42.051 10.367,43.735 6.438,42.469 C2.509,41.205 0.180,37.470 1.237,34.127 L9.062,9.382 C10.119,6.040 14.161,4.356 18.090,5.622 C22.019,6.886 24.348,10.621 23.291,13.963 L15.466,38.708 Z"/>
</svg>