<?xml version="1.0" encoding="UTF-8"?>
<!DOCTYPE svg PUBLIC "-//W3C//DTD SVG 1.1//EN" "http://www.w3.org/Graphics/SVG/1.1/DTD/svg11.dtd">
<svg xmlns="http://www.w3.org/2000/svg" version="1.1" width="237px" height="72px" style="shape-rendering:geometricPrecision; text-rendering:geometricPrecision; image-rendering:optimizeQuality; fill-rule:evenodd; clip-rule:evenodd" xmlns:xlink="http://www.w3.org/1999/xlink">
<g><path style="opacity:1" fill="#ffffff" d="M 36.5,-0.5 C 37.1667,-0.5 37.8333,-0.5 38.5,-0.5C 42.8816,6.72691 48.8816,11.8936 56.5,15C 55.8803,17.4728 55.2136,19.9728 54.5,22.5C 53.914,22.7093 53.414,23.0426 53,23.5C 51.8158,29.7027 50.6492,35.8694 49.5,42C 45.8468,42.7733 42.3468,43.9399 39,45.5C 38.501,41.1794 38.3343,36.8461 38.5,32.5C 39.8333,32.5 41.1667,32.5 42.5,32.5C 42.5715,29.8067 42.9049,27.1401 43.5,24.5C 41.9745,17.09 40.1411,9.75664 38,2.5C 36.934,12.827 35.934,23.1603 35,33.5C 34.9326,36.047 34.0993,38.2137 32.5,40C 34.1341,40.4935 35.8008,40.6602 37.5,40.5C 37.7261,43.2492 37.3928,45.9159 36.5,48.5C 33.8845,49.7616 31.2179,50.9282 28.5,52C 23.2845,58.3761 18.2845,64.8761 13.5,71.5C 12.8333,71.5 12.1667,71.5 11.5,71.5C 7.86104,51.3052 3.86104,31.3052 -0.5,11.5C -0.5,9.83333 -0.5,8.16667 -0.5,6.5C 9.50003,7.79993 19.3334,9.79993 29,12.5C 31.5235,8.11179 34.0235,3.77845 36.5,-0.5 Z M 34.5,9.5 C 33.6546,15.5509 32.4879,21.5509 31,27.5C 26.2633,28.4692 21.43,28.8025 16.5,28.5C 20.6344,27.5151 24.9677,27.1818 29.5,27.5C 29.1655,20.8503 30.8321,14.8503 34.5,9.5 Z M 47.5,21.5 C 45.1525,17.8072 43.6525,13.8072 43,9.5C 46.4605,12.756 47.9605,16.756 47.5,21.5 Z M 16.5,28.5 C 18.414,40.8499 17.0806,52.8499 12.5,64.5C 10.771,52.5427 9.43762,40.5427 8.5,28.5C 11.1667,28.5 13.8333,28.5 16.5,28.5 Z M 24.5,42.5 C 24.665,45.8499 24.4983,49.1832 24,52.5C 21.3036,56.6803 18.4702,60.6803 15.5,64.5C 17.0193,57.7716 18.8526,51.1049 21,44.5C 21.7096,43.0267 22.8762,42.3601 24.5,42.5 Z"/></g>
<g><path style="opacity:1" fill="#ffffff" d="M 70.5,21.5 C 72.5,21.5 74.5,21.5 76.5,21.5C 76.3354,24.5184 76.502,27.5184 77,30.5C 81.962,27.5977 85.962,28.5977 89,33.5C 89.4994,38.8229 89.666,44.1563 89.5,49.5C 87.5,49.5 85.5,49.5 83.5,49.5C 83.6657,45.1539 83.499,40.8206 83,36.5C 81,33.8333 79,33.8333 77,36.5C 76.501,40.8206 76.3343,45.1539 76.5,49.5C 74.5,49.5 72.5,49.5 70.5,49.5C 70.5,40.1667 70.5,30.8333 70.5,21.5 Z"/></g>
<g><path style="opacity:1" fill="#ffffff" d="M 95.5,21.5 C 100.123,20.4082 101.956,22.0748 101,26.5C 96.0792,28.077 94.2459,26.4103 95.5,21.5 Z"/></g>
<g><path style="opacity:1" fill="#ffffff" d="M 106.5,21.5 C 108.5,21.5 110.5,21.5 112.5,21.5C 112.5,30.8333 112.5,40.1667 112.5,49.5C 110.5,49.5 108.5,49.5 106.5,49.5C 106.5,40.1667 106.5,30.8333 106.5,21.5 Z"/></g>
<g><path style="opacity:1" fill="#ffffff" d="M 117.5,21.5 C 119.5,21.5 121.5,21.5 123.5,21.5C 123.5,30.8333 123.5,40.1667 123.5,49.5C 121.5,49.5 119.5,49.5 117.5,49.5C 117.5,40.1667 117.5,30.8333 117.5,21.5 Z"/></g>
<g><path style="opacity:1" fill="#ffffff" d="M 131.5,22.5 C 135.182,22.3347 138.848,22.5014 142.5,23C 144.838,25.1104 144.671,27.2771 142,29.5C 138.752,26.7408 135.918,26.9075 133.5,30C 137.074,32.7086 140.574,35.5419 144,38.5C 145.229,48.5891 140.729,52.4224 130.5,50C 126.705,48.9365 125.539,46.4365 127,42.5C 129.141,43.7683 131.474,44.4349 134,44.5C 135.973,44.6906 137.473,44.024 138.5,42.5C 135.128,39.7235 131.628,37.0568 128,34.5C 127.333,31.5 127.333,28.5 128,25.5C 129.145,24.3636 130.312,23.3636 131.5,22.5 Z"/></g>
<g><path style="opacity:1" fill="#ffffff" d="M 151.5,24.5 C 152.833,24.5 154.167,24.5 155.5,24.5C 155.5,26.1667 155.5,27.8333 155.5,29.5C 157.5,29.5 159.5,29.5 161.5,29.5C 161.5,31.1667 161.5,32.8333 161.5,34.5C 159.5,34.5 157.5,34.5 155.5,34.5C 155.335,37.5184 155.502,40.5184 156,43.5C 157.699,44.4061 159.533,44.7394 161.5,44.5C 161.5,46.1667 161.5,47.8333 161.5,49.5C 157.823,51.0391 154.323,50.7058 151,48.5C 149.621,43.964 149.121,39.2973 149.5,34.5C 148.5,34.5 147.5,34.5 146.5,34.5C 148.304,31.3579 149.971,28.0246 151.5,24.5 Z"/></g>
<g><path style="opacity:1" fill="#ffffff" d="M 171.5,28.5 C 182.644,29.1522 186.477,34.8189 183,45.5C 177,52.1667 171,52.1667 165,45.5C 162.016,37.5893 164.183,31.9226 171.5,28.5 Z M 171.5,34.5 C 173.467,34.2606 175.301,34.5939 177,35.5C 177.777,38.4294 177.61,41.2628 176.5,44C 174.559,44.7429 172.726,44.5762 171,43.5C 170.264,40.408 170.431,37.408 171.5,34.5 Z"/></g>
<g><path style="opacity:1" fill="#ffffff" d="M 198.5,28.5 C 199.5,28.5 200.5,28.5 201.5,28.5C 201.5,30.5 201.5,32.5 201.5,34.5C 199.064,34.317 196.897,34.9837 195,36.5C 194.501,40.8206 194.334,45.1539 194.5,49.5C 192.5,49.5 190.5,49.5 188.5,49.5C 188.5,42.8333 188.5,36.1667 188.5,29.5C 190.766,29.1412 192.599,29.8078 194,31.5C 195.409,30.2189 196.909,29.2189 198.5,28.5 Z"/></g>
<g><path style="opacity:1" fill="#ffffff" d="M 236.5,32.5 C 236.5,38.1667 236.5,43.8333 236.5,49.5C 234.5,49.5 232.5,49.5 230.5,49.5C 230.666,45.1539 230.499,40.8206 230,36.5C 227.565,33.7723 225.565,34.1057 224,37.5C 223.501,41.4862 223.334,45.4862 223.5,49.5C 221.5,49.5 219.5,49.5 217.5,49.5C 217.666,44.8215 217.499,40.1548 217,35.5C 215.333,34.1667 213.667,34.1667 212,35.5C 211.501,40.1548 211.334,44.8215 211.5,49.5C 209.5,49.5 207.5,49.5 205.5,49.5C 205.5,42.8333 205.5,36.1667 205.5,29.5C 207.591,29.3184 209.591,29.6518 211.5,30.5C 215.588,27.8125 219.421,28.1459 223,31.5C 227.861,27.3436 232.361,27.6769 236.5,32.5 Z"/></g>
<g><path style="opacity:1" fill="#ffffff" d="M 95.5,29.5 C 97.5,29.5 99.5,29.5 101.5,29.5C 101.5,36.1667 101.5,42.8333 101.5,49.5C 99.5,49.5 97.5,49.5 95.5,49.5C 95.5,42.8333 95.5,36.1667 95.5,29.5 Z"/></g>
</svg>
