<?xml version="1.0" standalone="no"?>
<!DOCTYPE svg PUBLIC "-//W3C//DTD SVG 20010904//EN"
 "http://www.w3.org/TR/2001/REC-SVG-20010904/DTD/svg10.dtd">
<svg version="1.0" xmlns="http://www.w3.org/2000/svg"
 width="316.000000pt" height="316.000000pt" viewBox="0 0 316.000000 316.000000"
 preserveAspectRatio="xMidYMid meet">
<metadata>
Created by potrace 1.14, written by Peter Selinger 2001-2017
</metadata>
<g transform="translate(0.000000,316.000000) scale(0.100000,-0.100000)"
fill="#000000" stroke="none">
<path d="M383 1910 c-45 -27 -42 -19 -153 -370 -55 -176 -58 -196 -28 -239 60
-87 194 -93 239 -10 16 30 159 493 159 514 0 32 -40 85 -80 106 -45 24 -97 24
-137 -1z"/>
<path d="M133 1858 c-26 -12 -37 -38 -93 -220 -48 -157 -47 -180 11 -212 40
-22 80 -17 106 14 17 19 113 311 113 343 0 59 -79 102 -137 75z"/>
<path d="M1392 1570 l0 -190 33 0 33 0 0 190 0 190 -33 0 -32 0 -1 -190z"/>
<path d="M1010 1559 l0 -180 117 2 c129 2 173 15 192 56 18 40 13 73 -17 103
-27 27 -28 28 -10 50 10 12 18 36 18 52 0 75 -45 98 -195 98 l-105 0 0 -181z
m215 111 c18 -15 20 -54 3 -67 -21 -16 -148 -17 -149 -1 -1 7 -2 22 -3 33 -3
43 10 52 73 50 33 -1 67 -8 76 -15z m21 -151 c18 -15 18 -53 0 -69 -15 -12
-165 -22 -167 -11 -5 32 -3 78 3 87 11 15 145 9 164 -7z"/>
<path d="M2220 1716 c-1 -14 -1 -82 -1 -151 0 -69 0 -139 1 -156 0 -28 2 -30
33 -27 29 3 32 6 34 38 0 19 1 42 2 51 1 12 12 16 46 15 42 0 47 -3 82 -53 32
-45 43 -53 71 -53 17 0 32 3 32 6 0 4 -16 29 -36 56 l-36 49 33 30 c31 28 34
35 34 89 0 48 -4 63 -24 84 -33 35 -63 43 -174 45 l-97 2 0 -25z m211 -53 c34
-35 25 -98 -18 -114 -13 -5 -48 -9 -76 -9 l-52 0 1 63 c1 34 3 67 3 73 2 19
121 8 142 -13z"/>
<path d="M622 1703 c-20 -17 -122 -316 -122 -355 0 -9 12 -30 26 -47 21 -25
33 -31 67 -31 24 0 48 7 59 17 20 18 118 314 118 356 0 59 -101 100 -148 60z"/>
<path d="M1542 1550 c3 -102 5 -112 29 -136 33 -33 92 -41 142 -21 32 14 37
14 37 1 0 -9 10 -14 30 -14 l30 0 0 141 0 140 -32 -3 -32 -3 -2 -88 c-1 -75
-4 -92 -22 -109 -27 -27 -63 -30 -92 -8 -23 17 -24 25 -25 114 l0 96 -34 0
-33 0 4 -110z"/>
<path d="M1936 1640 c-56 -30 -79 -107 -55 -175 25 -69 133 -104 210 -70 43
20 44 22 25 48 -11 14 -19 16 -33 8 -52 -27 -120 -13 -143 29 -10 19 -7 20
100 20 l110 0 0 33 c0 98 -122 159 -214 107z m122 -49 c19 -10 37 -40 28 -48
-2 -2 -39 -3 -82 -1 l-79 3 32 33 c33 34 57 37 101 13z"/>
<path d="M2633 1638 c-87 -52 -80 -197 12 -240 48 -23 115 -22 153 2 28 17 31
23 22 40 -12 23 -15 23 -38 11 -36 -19 -80 -19 -111 0 -17 10 -31 26 -31 34 0
12 18 15 105 15 l105 0 0 33 c0 100 -123 159 -217 105z m123 -46 c21 -11 39
-40 30 -49 -2 -2 -39 -3 -82 -1 l-79 3 31 32 c32 33 59 37 100 15z"/>
<path d="M2896 1623 c15 -21 39 -53 52 -71 l25 -32 -49 -63 c-26 -34 -53 -65
-59 -69 -5 -4 8 -8 31 -8 36 0 44 4 74 45 19 25 36 45 39 45 3 0 20 -21 36
-45 27 -40 34 -45 69 -45 43 0 45 -7 -26 81 -21 25 -38 51 -38 59 0 8 20 40
45 71 25 32 45 60 45 63 0 3 -15 6 -32 6 -27 -1 -39 -9 -66 -46 l-33 -45 -35
45 c-30 40 -40 46 -71 46 l-35 0 28 -37z"/>
</g>
</svg>
