<?xml version="1.0" standalone="no"?>
<!DOCTYPE svg PUBLIC "-//W3C//DTD SVG 20010904//EN"
 "http://www.w3.org/TR/2001/REC-SVG-20010904/DTD/svg10.dtd">
<svg version="1.0" xmlns="http://www.w3.org/2000/svg"
 width="400.000000pt" height="400.000000pt" viewBox="0 0 400.000000 400.000000"
 preserveAspectRatio="xMidYMid meet">
<metadata>
Created by potrace 1.14, written by Peter Selinger 2001-2017
</metadata>
<g transform="translate(0.000000,400.000000) scale(0.100000,-0.100000)"
fill="#000000" stroke="none">
<path d="M660 2581 c0 -6 5 -13 10 -16 6 -4 8 -10 5 -15 -3 -5 15 -84 39 -175
40 -149 44 -173 39 -240 -6 -85 -10 -82 86 -67 l44 7 12 57 c12 63 8 81 -21
78 -69 -8 -65 -12 -133 165 -35 91 -61 168 -58 171 2 3 38 -47 78 -111 65
-103 73 -121 70 -159 l-2 -43 53 -6 c29 -2 55 -3 56 -2 2 2 6 30 9 62 l5 59
-56 14 c-52 12 -61 19 -113 84 -83 103 -123 147 -123 137z"/>
<path d="M576 2475 c-31 -52 -62 -95 -69 -95 -7 0 -30 5 -52 10 -22 5 -53 11
-70 14 -16 3 -39 8 -50 10 -106 23 -312 66 -318 66 -5 0 -6 -12 -3 -27 21
-110 70 -369 101 -528 19 -104 42 -217 49 -250 8 -33 20 -95 27 -137 6 -43 16
-78 21 -78 5 0 7 3 5 8 -3 4 -8 43 -11 87 -4 44 -9 87 -11 95 -2 8 -6 53 -10
100 -4 47 -8 99 -10 115 -6 50 -15 137 -20 198 l-5 57 53 1 c28 0 77 2 107 5
50 3 157 11 188 13 8 1 12 21 12 64 1 54 10 82 65 212 35 83 64 143 64 135 1
-12 -24 -130 -44 -210 -2 -8 -14 -62 -26 -120 -12 -58 -26 -108 -31 -111 -5
-3 -35 -7 -66 -8 -48 -2 -93 -5 -160 -10 -10 -1 -12 -21 -6 -93 3 -51 8 -111
9 -132 1 -22 -15 -118 -36 -215 -22 -97 -39 -183 -38 -191 0 -13 35 95 111
346 l21 72 98 23 c55 12 103 25 108 28 10 7 16 44 26 156 3 39 8 88 10 110 2
22 7 67 10 100 3 33 8 78 10 100 14 130 15 175 7 175 -5 0 -35 -43 -66 -95z"/>
<path d="M1210 2327 c-14 -6 -27 -13 -30 -15 -10 -8 -5 -644 5 -649 17 -6 78
23 80 38 2 8 5 38 9 67 12 100 54 192 88 192 4 0 8 -15 9 -32 3 -128 6 -195 7
-210 6 -52 82 -65 126 -22 26 27 33 44 18 44 -4 0 -13 -5 -19 -11 -7 -7 -19
-9 -27 -6 -13 5 -16 28 -16 142 0 75 -5 145 -10 156 -8 14 -21 19 -49 19 -46
0 -69 -22 -109 -108 l-30 -63 1 233 c0 252 0 250 -53 225z"/>
<path d="M1838 2327 l-28 -11 0 -301 c0 -337 2 -345 64 -345 36 0 86 33 86 56
0 17 -5 17 -30 2 -10 -7 -22 -9 -26 -5 -4 4 -7 144 -7 312 0 335 3 317 -59
292z"/>
<path d="M2063 2328 l-33 -11 0 -301 c0 -338 1 -346 64 -346 36 0 86 33 86 56
0 17 -5 17 -30 2 -16 -10 -22 -10 -28 -1 -4 6 -7 147 -7 312 0 197 -3 301 -10
300 -5 -1 -25 -6 -42 -11z"/>
<path d="M1620 2266 c-37 -14 -38 -15 -26 -91 10 -68 18 -80 44 -66 15 8 21
25 27 68 3 32 9 68 12 81 6 25 -4 27 -57 8z"/>
<path d="M2575 2218 c-41 -15 -43 -21 -42 -100 1 -60 -2 -70 -21 -84 -27 -19
-29 -44 -2 -44 11 0 20 -6 21 -12 0 -7 2 -69 3 -138 2 -69 6 -133 10 -143 17
-36 89 -34 125 5 22 23 18 46 -5 27 -7 -6 -21 -9 -29 -5 -12 4 -15 29 -15 135
l0 130 36 3 c27 2 39 9 45 25 7 19 4 21 -19 21 -65 -1 -62 -6 -62 97 0 52 -3
95 -7 94 -5 0 -21 -5 -38 -11z"/>
<path d="M2292 2050 c-12 -12 -23 -27 -23 -35 -1 -8 -2 -21 -3 -27 -1 -7 1
-24 5 -38 5 -19 0 -34 -17 -55 -24 -30 -31 -55 -16 -55 4 0 16 14 25 30 10 17
21 30 25 30 17 0 112 -103 112 -121 0 -11 -11 -31 -24 -44 -22 -22 -28 -23
-55 -14 -17 6 -38 21 -47 33 l-15 21 -25 -30 c-31 -39 -30 -53 4 -66 91 -35
175 -1 202 81 19 57 2 105 -56 158 -33 32 -44 48 -38 60 32 75 -2 120 -54 72z
m42 -44 c-6 -16 -8 -17 -16 -2 -11 19 0 42 13 29 6 -6 7 -18 3 -27z"/>
<path d="M816 2043 c-1 -1 -25 -5 -54 -7 -95 -8 -92 -5 -92 -111 l0 -94 87 30
c48 16 90 32 94 37 4 4 10 40 14 79 l7 73 -27 -2 c-14 -1 -27 -4 -29 -5z"/>
<path d="M3177 2015 c-24 -30 -26 -37 -15 -54 10 -17 9 -28 -10 -65 -13 -28
-17 -48 -11 -51 5 -4 19 15 31 42 l22 48 53 0 c29 0 53 -2 53 -3 0 -2 -9 -16
-19 -31 -50 -70 -62 -172 -24 -213 27 -30 109 -21 147 17 21 22 11 38 -15 24
-44 -23 -89 25 -89 95 0 46 11 73 54 129 20 26 36 51 36 57 0 5 -20 0 -44 -11
-51 -22 -81 -16 -114 25 -11 14 -21 26 -23 26 -2 0 -16 -16 -32 -35z"/>
<path d="M2850 2016 c-160 -105 -133 -333 42 -350 59 -6 117 22 152 73 34 48
44 85 40 144 -3 57 -29 104 -73 134 l-34 23 -39 -32 -40 -31 35 -19 c108 -55
121 -225 19 -244 -44 -9 -74 9 -102 58 -31 56 -24 129 20 193 18 26 38 49 46
52 8 3 11 9 8 14 -9 15 -37 9 -74 -15z"/>
<path d="M3467 2014 c-15 -15 -24 -31 -21 -36 4 -6 10 -6 17 1 6 6 19 11 29
11 17 0 18 -13 18 -165 0 -91 3 -165 6 -165 4 0 23 5 44 11 33 10 37 15 38 48
1 20 4 47 7 61 3 14 7 34 9 45 16 86 40 140 56 130 5 -3 8 -69 8 -146 0 -77 3
-143 6 -146 12 -13 81 23 82 42 6 82 38 221 56 242 21 25 26 1 26 -117 -1
-102 2 -124 17 -140 26 -29 80 -26 110 5 37 36 34 57 -5 33 -10 -7 -22 -9 -27
-5 -4 4 -8 72 -8 151 -1 78 -5 148 -9 154 -12 19 -53 14 -80 -10 -14 -13 -39
-47 -54 -76 l-29 -53 2 53 c3 70 -8 98 -38 98 -35 0 -72 -33 -101 -92 -16 -31
-26 -44 -27 -32 -2 71 -8 98 -24 111 -31 22 -79 16 -108 -13z"/>
<path d="M1623 2019 l-33 -10 0 -149 c0 -137 2 -152 20 -170 11 -11 33 -20 49
-20 32 0 81 34 81 56 0 17 -5 17 -30 2 -10 -7 -22 -9 -26 -6 -4 4 -7 75 -7
158 0 103 -3 150 -11 149 -6 0 -26 -5 -43 -10z"/>
<path d="M521 1880 c-40 -10 -75 -21 -78 -24 -3 -2 -5 -35 -4 -73 0 -69 0 -69
-71 -179 -39 -60 -82 -126 -95 -147 -13 -21 -28 -35 -33 -32 -6 3 -10 1 -10
-4 0 -25 22 -7 75 62 187 241 183 237 259 266 l69 26 3 63 c4 73 6 72 -115 42z"/>
</g>
</svg>
