<?xml version="1.0" standalone="no"?>
<!DOCTYPE svg PUBLIC "-//W3C//DTD SVG 20010904//EN"
 "http://www.w3.org/TR/2001/REC-SVG-20010904/DTD/svg10.dtd">
<svg version="1.0" xmlns="http://www.w3.org/2000/svg"
 width="86.000000pt" height="86.000000pt" viewBox="0 0 86.000000 86.000000"
 preserveAspectRatio="xMidYMid meet">
<metadata>
Created by potrace 1.14, written by Peter Selinger 2001-2017
</metadata>
<g transform="translate(0.000000,86.000000) scale(0.100000,-0.100000)"
fill="#000000" stroke="none">
<path d="M510 788 c-53 -86 -58 -91 -89 -84 -14 4 -35 8 -46 10 -11 2 -45 9
-75 16 -30 6 -66 13 -80 16 -14 2 -49 9 -78 15 -57 11 -69 9 -56 -13 4 -7 9
-19 10 -28 0 -8 8 -51 17 -95 9 -44 19 -91 21 -105 2 -14 14 -74 27 -135 12
-60 23 -117 24 -125 1 -8 8 -42 15 -75 17 -74 17 -73 19 -110 1 -20 4 -26 10
-17 4 7 4 36 0 63 -4 28 -11 83 -15 122 -3 40 -8 86 -10 102 -10 91 -12 155
-5 159 8 5 198 20 234 18 9 0 17 2 18 6 0 4 1 30 3 57 2 28 15 76 30 107 14
31 26 62 26 67 0 6 5 11 11 11 5 0 8 4 5 8 -2 4 0 14 5 22 11 15 8 -19 -5 -67
-3 -13 -8 -33 -11 -45 -3 -13 -12 -57 -21 -98 -9 -41 -20 -79 -24 -83 -4 -4
-40 -10 -81 -11 -41 -2 -79 -4 -85 -5 -7 -1 -8 -18 -4 -48 7 -59 5 -168 -4
-208 -7 -28 -34 -154 -37 -171 -6 -35 5 -20 16 21 33 124 68 231 79 243 7 7
23 15 37 18 13 3 34 7 46 10 36 7 73 23 74 31 0 5 2 31 4 58 2 28 6 68 9 90 9
73 18 164 21 232 2 40 9 69 17 74 10 7 10 9 0 9 -7 0 -30 -28 -52 -62z"/>
<path d="M570 820 c0 -5 4 -10 9 -10 16 0 104 -155 105 -185 1 -26 5 -30 38
-36 40 -6 48 4 48 63 0 23 -5 27 -40 33 -33 6 -48 17 -96 76 -57 70 -64 76
-64 59z"/>
<path d="M575 784 c2 -10 14 -55 26 -99 14 -49 23 -107 23 -148 l0 -68 45 3
c42 3 47 6 57 37 16 49 9 66 -28 68 -37 1 -39 4 -79 118 -30 85 -54 132 -44
89z"/>
<path d="M643 453 c-4 -1 -24 -4 -43 -7 l-35 -6 -1 -65 c0 -73 -1 -73 72 -49
61 20 70 31 72 87 3 44 2 45 -27 43 -17 0 -34 -2 -38 -3z"/>
<path d="M468 341 c-31 -9 -59 -19 -63 -22 -3 -4 -8 -30 -9 -58 -3 -36 -13
-65 -37 -103 -18 -29 -36 -55 -39 -58 -3 -3 -16 -23 -29 -45 -12 -22 -17 -33
-9 -24 26 31 78 95 117 144 29 38 52 55 89 68 47 17 50 20 54 58 2 22 -1 44
-7 48 -5 4 -36 0 -67 -8z"/>
<path d="M236 27 c3 -10 9 -15 12 -12 3 3 0 11 -7 18 -10 9 -11 8 -5 -6z"/>
</g>
</svg>
